<svg width="46" height="40" viewBox="0 0 46 40" fill="none" xmlns="http://www.w3.org/2000/svg">
<path d="M28.2083 39.75C27.7623 39.7657 27.3241 39.6301 26.9648 39.3654C26.6056 39.1007 26.3463 38.7223 26.2291 38.2917L19.7708 18.8125L14.5625 32.1458C14.4314 32.5397 14.1798 32.8823 13.8434 33.1253C13.5069 33.3683 13.1025 33.4994 12.6875 33.5C12.284 33.5102 11.8855 33.4086 11.5362 33.2063C11.1869 33.0041 10.9004 32.7092 10.7083 32.3542L6.95831 24.75L3.72914 28.6042C3.36772 29.0149 2.85923 29.267 2.3135 29.306C1.76777 29.345 1.22861 29.1677 0.812476 28.8125C0.401721 28.4511 0.149626 27.9426 0.110645 27.3969C0.0716644 26.8511 0.248927 26.312 0.604143 25.8958L5.81248 19.6458C6.02183 19.3844 6.29411 19.1803 6.60383 19.0528C6.91354 18.9253 7.25056 18.8784 7.58331 18.9167C7.93283 18.9594 8.26686 19.0859 8.55702 19.2854C8.84719 19.4849 9.0849 19.7515 9.24998 20.0625L12.375 26.3125L17.8958 11.9375C18.0434 11.5239 18.3179 11.1676 18.6801 10.9193C19.0424 10.6711 19.4738 10.5436 19.9127 10.5552C20.3517 10.5667 20.7758 10.7167 21.1244 10.9837C21.4731 11.2506 21.7285 11.6209 21.8541 12.0417L28 30.375L35.6041 1.72917C35.6971 1.29664 35.9323 0.90771 36.2721 0.624489C36.612 0.341268 37.0369 0.180084 37.4791 0.16667C37.9387 0.145633 38.3923 0.277285 38.7691 0.541091C39.146 0.804897 39.4249 1.18602 39.5625 1.625L45.8125 20.375C45.9258 20.8838 45.8443 21.4167 45.584 21.8683C45.3236 22.32 44.9034 22.6576 44.4063 22.8146C43.9092 22.9716 43.3713 22.9365 42.8988 22.7162C42.4263 22.496 42.0536 22.1066 41.8541 21.625L37.7916 9.54167L30.1875 38.1875C30.0945 38.62 29.8594 39.009 29.5195 39.2922C29.1796 39.5754 28.7547 39.7366 28.3125 39.75H28.2083Z" fill="#A9A9A9"/>
</svg>
