<svg width="50" height="50" viewBox="0 0 50 50" fill="none" xmlns="http://www.w3.org/2000/svg">
<path d="M25 16.6667V25L30.2083 30.2083" stroke="#A9A9A9" stroke-width="4" stroke-linecap="round" stroke-linejoin="round"/>
<path d="M9.03719 14.3138L7.47471 14.3216C7.479 15.1784 8.17252 15.8719 9.02933 15.8763L9.03719 14.3138ZM14.3326 15.9029C15.1955 15.9072 15.8986 15.2112 15.9029 14.3483C15.9072 13.4853 15.2112 12.7823 14.3483 12.7779L14.3326 15.9029ZM10.573 9.00269C10.5687 8.13975 9.86562 7.44371 9.00269 7.44804C8.13975 7.4524 7.44371 8.15546 7.44806 9.01838L10.573 9.00269ZM7.8125 25C7.8125 24.1371 7.11294 23.4375 6.25 23.4375C5.38706 23.4375 4.6875 24.1371 4.6875 25H7.8125ZM35.1573 42.5942C35.9044 42.1621 36.1596 41.2062 35.7275 40.4592C35.2954 39.7123 34.3396 39.4569 33.5927 39.8892L35.1573 42.5942ZM39.8892 33.5927C39.4569 34.3396 39.7123 35.2954 40.4592 35.7275C41.2062 36.1596 42.1621 35.9044 42.5942 35.1573L39.8892 33.5927ZM10.709 10.5651C10.0958 11.1723 10.0909 12.1616 10.698 12.7748C11.3052 13.388 12.2945 13.393 12.9077 12.7858L10.709 10.5651ZM39.2965 10.7039C31.3377 2.74512 18.4767 2.66454 10.5706 10.5706L12.7803 12.7803C19.4451 6.11552 30.3275 6.15425 37.0869 12.9136L39.2965 10.7039ZM10.5706 10.5706L7.93233 13.2089L10.142 15.4186L12.7803 12.7803L10.5706 10.5706ZM9.02933 15.8763L14.3326 15.9029L14.3483 12.7779L9.04504 12.7513L9.02933 15.8763ZM10.5997 14.3059L10.573 9.00269L7.44806 9.01838L7.47471 14.3216L10.5997 14.3059ZM25 7.8125C34.4923 7.8125 42.1875 15.5076 42.1875 25H45.3125C45.3125 13.7817 36.2183 4.6875 25 4.6875V7.8125ZM25 42.1875C15.5076 42.1875 7.8125 34.4923 7.8125 25H4.6875C4.6875 36.2183 13.7817 45.3125 25 45.3125V42.1875ZM33.5927 39.8892C31.0662 41.3506 28.1331 42.1875 25 42.1875V45.3125C28.6973 45.3125 32.1681 44.3233 35.1573 42.5942L33.5927 39.8892ZM42.1875 25C42.1875 28.1331 41.3506 31.0662 39.8892 33.5927L42.5942 35.1573C44.3233 32.1681 45.3125 28.6973 45.3125 25H42.1875ZM12.9077 12.7858C16.0147 9.70956 20.2843 7.8125 25 7.8125V4.6875C19.428 4.6875 14.3774 6.93315 10.709 10.5651L12.9077 12.7858Z" fill="#A9A9A9"/>
</svg>
